<svg xmlns="http://www.w3.org/2000/svg" viewBox="0 0 900 640"><rect x="110" y="90" width="680" height="460" rx="0" fill="none" stroke="#CDD4CE" stroke-width="1.3" opacity="0.50"/><line x1="110" y1="119" x2="790" y2="119" stroke="#CDD4CE" stroke-width="1" opacity="0.16"/><line x1="110" y1="148" x2="790" y2="148" stroke="#CDD4CE" stroke-width="1" opacity="0.16"/><line x1="110" y1="176" x2="790" y2="176" stroke="#CDD4CE" stroke-width="1" opacity="0.16"/><line x1="110" y1="205" x2="790" y2="205" stroke="#CDD4CE" stroke-width="1" opacity="0.16"/><line x1="110" y1="234" x2="790" y2="234" stroke="#CDD4CE" stroke-width="1" opacity="0.16"/><line x1="110" y1="262" x2="790" y2="262" stroke="#CDD4CE" stroke-width="1" opacity="0.16"/><line x1="110" y1="291" x2="790" y2="291" stroke="#CDD4CE" stroke-width="1" opacity="0.16"/><line x1="110" y1="320" x2="790" y2="320" stroke="#CDD4CE" stroke-width="1" opacity="0.16"/><line x1="110" y1="349" x2="790" y2="349" stroke="#CDD4CE" stroke-width="1" opacity="0.16"/><line x1="110" y1="378" x2="790" y2="378" stroke="#CDD4CE" stroke-width="1" opacity="0.16"/><line x1="110" y1="406" x2="790" y2="406" stroke="#CDD4CE" stroke-width="1" opacity="0.16"/><line x1="110" y1="435" x2="790" y2="435" stroke="#CDD4CE" stroke-width="1" opacity="0.16"/><line x1="110" y1="464" x2="790" y2="464" stroke="#CDD4CE" stroke-width="1" opacity="0.16"/><line x1="110" y1="492" x2="790" y2="492" stroke="#CDD4CE" stroke-width="1" opacity="0.16"/><line x1="110" y1="521" x2="790" y2="521" stroke="#CDD4CE" stroke-width="1" opacity="0.16"/><line x1="205" y1="90" x2="205" y2="550" stroke="#CDD4CE" stroke-width="1" opacity="0.30"/><line x1="464" y1="90" x2="464" y2="550" stroke="#CDD4CE" stroke-width="1" opacity="0.30"/><line x1="586" y1="90" x2="586" y2="550" stroke="#CDD4CE" stroke-width="1" opacity="0.30"/><line x1="695" y1="90" x2="695" y2="550" stroke="#CDD4CE" stroke-width="1" opacity="0.30"/><line x1="110" y1="119" x2="790" y2="119" stroke="#CDD4CE" stroke-width="1.4" opacity="0.48"/><line x1="219" y1="138" x2="423" y2="138" stroke="#CDD4CE" stroke-width="3" opacity="0.13"/><line x1="219" y1="196" x2="423" y2="196" stroke="#CDD4CE" stroke-width="3" opacity="0.13"/><line x1="219" y1="254" x2="423" y2="254" stroke="#CDD4CE" stroke-width="3" opacity="0.13"/><line x1="219" y1="311" x2="423" y2="311" stroke="#CDD4CE" stroke-width="3" opacity="0.13"/><line x1="219" y1="368" x2="423" y2="368" stroke="#CDD4CE" stroke-width="3" opacity="0.13"/><line x1="219" y1="426" x2="423" y2="426" stroke="#CDD4CE" stroke-width="3" opacity="0.13"/><line x1="219" y1="484" x2="423" y2="484" stroke="#CDD4CE" stroke-width="3" opacity="0.13"/><line x1="586" y1="492" x2="790" y2="492" stroke="#CDD4CE" stroke-width="1.4" opacity="0.45"/></svg>